<?xml version="1.0" encoding="UTF-8" standalone="no" ?>
<!DOCTYPE svg PUBLIC "-//W3C//DTD SVG 1.1//EN" "http://www.w3.org/Graphics/SVG/1.1/DTD/svg11.dtd">
<svg xmlns="http://www.w3.org/2000/svg" xmlns:xlink="http://www.w3.org/1999/xlink" version="1.1" width="1280" height="1024" viewBox="0 0 1280 1024" xml:space="preserve">
<desc>Created with Fabric.js 4.4.0</desc>
<defs>
</defs>
<g transform="matrix(1 0 0 1 640 512)" id="background-logo"  >
<linearGradient id="SVGID_6_1_1_1_61506_61508" gradientUnits="userSpaceOnUse" gradientTransform="matrix(1 0 0 1 -640 -512)"  x1="0" y1="0" x2="0" y2="1024">
<stop offset="0%" style="stop-color:rgb(250,217,97);stop-opacity: 1"/>
<stop offset="100%" style="stop-color:rgb(247,107,28);stop-opacity: 1"/>
</linearGradient>
<rect style="stroke: none; stroke-width: 0; stroke-dasharray: none; stroke-linecap: butt; stroke-dashoffset: 0; stroke-linejoin: miter; stroke-miterlimit: 4; fill: url(#SVGID_6_1_1_1_61506_61508); fill-rule: nonzero; opacity: 1;"  paint-order="stroke"  x="-640" y="-512" rx="0" ry="0" width="1280" height="1024" />
</g>
<g transform="matrix(1.9211538461538462 0 0 1.9211538461538462 645.4913939482508 507.73696219355315)" id="text-logo-path-group"  >
<g style=""  paint-order="stroke"   >
		<g transform="matrix(1 0 0 1 0 0)" id="text-logo-path-0"  >
<filter id="SVGID_61507" y="-34.090177133655395%" height="168.1803542673108%" x="-23.18934051525568%" width="146.37868103051136%" >
	<feGaussianBlur in="SourceAlpha" stdDeviation="0"></feGaussianBlur>
	<feOffset dx="9" dy="7" result="oBlur" ></feOffset>
	<feFlood flood-color="rgb(0,0,0)" flood-opacity="1"/>
	<feComposite in2="oBlur" operator="in" />
	<feMerge>
		<feMergeNode></feMergeNode>
		<feMergeNode in="SourceGraphic"></feMergeNode>
	</feMerge>
</filter>
<path style="stroke: rgb(183,55,1); stroke-width: 11; stroke-dasharray: none; stroke-linecap: butt; stroke-dashoffset: 0; stroke-linejoin: miter; stroke-miterlimit: 4; fill: rgb(254,187,85); fill-rule: nonzero; opacity: 1;filter: url(#SVGID_61507);"  paint-order="stroke"  transform=" translate(-143.255, 23.639999999999997)" d="M 2.16 -35.69 L 5.68 -35.69 L 5.68 -27.82 L 2.29 -27.89 L 2.26 -19.42 L 4.91 -19.42 L 4.91 -13.68 C 4.95 -13.18 4.98 -12.75 4.98 -12.32 C 4.98 -9.73 4.12 -8.43 2.36 -8.43 L 2.32 -8.43 L 2.32 -0.03 C 2.89 0.03 3.45 0.07 4.02 0.07 C 9.83 0.07 13.28 -3.82 14.34 -11.55 L 14.34 -19.72 L 26.89 -19.79 C 26.93 -18.69 26.96 -17.7 26.96 -16.73 C 26.96 -11.75 26.46 -8.93 25.5 -8.3 C 25.13 -8.07 24.57 -7.94 23.87 -7.94 L 23.67 -7.94 C 22.11 -7.94 19.79 -8.43 16.7 -9.4 L 13.38 -1.06 C 16.8 0.37 20.15 1.06 23.41 1.06 C 25.13 1.06 26.83 0.86 28.52 0.46 C 30.61 -0.03 32.37 -1 33.83 -2.42 C 35.26 -3.85 36.13 -5.84 36.36 -8.43 L 36.36 -22.91 C 35.86 -26.23 33.47 -27.89 29.25 -27.89 L 28.59 -27.89 C 31.58 -31.18 33.17 -33.87 33.34 -35.99 C 33.37 -36.32 33.37 -36.66 33.37 -36.99 C 33.37 -38.75 32.97 -40.41 32.17 -41.97 C 31.21 -43.83 28.52 -44.89 24.07 -45.12 L 3.35 -45.12 Z M 14.34 -28.26 L 14.34 -35.69 L 22.74 -35.69 C 22.78 -35.46 22.78 -35.26 22.78 -35.03 C 22.78 -32.61 21.38 -30.68 18.63 -29.19 Z M 39.78 -43.23 L 39.78 -5.01 C 40.34 -1.73 42.37 -0.1 45.85 -0.1 L 71.65 -0.1 C 75.27 -0.2 77.33 -1.49 77.86 -3.92 L 77.86 -34.93 C 77.86 -41.11 76.6 -44.56 74.04 -45.26 L 52.13 -45.26 L 49.54 -40.91 L 49.54 -45.26 Z M 49.54 -9.89 L 49.54 -35.46 L 68.07 -35.46 L 68.07 -9.89 Z M 81.25 0.17 L 90.91 0.17 L 90.91 -31.18 C 94.1 -30.28 97.45 -28.39 101 -25.47 C 104.52 -22.51 106.62 -20.19 107.28 -18.46 C 107.94 -16.73 108.28 -15.11 108.28 -13.65 L 108.28 -13.51 C 108.31 -13.15 108.34 -12.82 108.34 -12.48 C 108.34 -10.46 107.38 -9.4 105.49 -9.23 L 105.49 0.17 C 106.12 0.2 106.68 0.2 107.25 0.2 C 111.33 0.2 114.09 -0.63 115.51 -2.32 C 117.01 -4.08 117.74 -5.71 117.74 -7.24 L 117.74 -7.3 C 117.74 -7.44 117.74 -7.57 117.71 -7.74 L 117.71 -44.99 L 108.14 -44.99 L 108.18 -28.65 L 107.71 -29.98 C 105.55 -33.17 103.46 -35.46 101.44 -36.89 C 99.41 -38.28 96.26 -39.54 92.04 -40.67 L 90.91 -37.88 L 90.94 -45.06 L 81.31 -45.06 Z M 120.06 -1.79 L 128.99 0.93 L 142.04 -30.02 L 153.73 1.2 L 162.53 -1.83 L 151.14 -32.34 L 158.31 -32.37 L 159.67 -42.2 L 146.53 -42.2 L 147.49 -45.39 L 139.32 -48.48 L 136.7 -42.2 L 124.28 -42.2 L 123.55 -32.51 L 132.95 -32.47 Z M 134.11 -5.11 L 139.22 0.4 L 148.62 -9.03 L 143.54 -14.61 Z M 164.62 0.17 L 174.28 0.17 L 174.28 -31.18 C 177.47 -30.28 180.82 -28.39 184.38 -25.47 C 187.9 -22.51 189.99 -20.19 190.65 -18.46 C 191.32 -16.73 191.65 -15.11 191.65 -13.65 L 191.65 -13.51 C 191.68 -13.15 191.71 -12.82 191.71 -12.48 C 191.71 -10.46 190.75 -9.4 188.86 -9.23 L 188.86 0.17 C 189.49 0.2 190.05 0.2 190.62 0.2 C 194.7 0.2 197.46 -0.63 198.89 -2.32 C 200.38 -4.08 201.11 -5.71 201.11 -7.24 L 201.11 -7.3 C 201.11 -7.44 201.11 -7.57 201.08 -7.74 L 201.08 -44.99 L 191.52 -44.99 L 191.55 -28.65 L 191.08 -29.98 C 188.93 -33.17 186.83 -35.46 184.81 -36.89 C 182.78 -38.28 179.63 -39.54 175.41 -40.67 L 174.28 -37.88 L 174.32 -45.06 L 164.69 -45.06 Z M 204.4 -35.43 L 222.53 -35.43 C 217.78 -31.34 213.76 -26.86 210.47 -21.98 C 207.19 -17.07 205.39 -13.58 205.03 -11.52 C 204.8 -10.26 204.7 -9.03 204.7 -7.84 C 204.7 -7.07 204.73 -6.34 204.83 -5.64 C 205.06 -3.79 205.69 -2.32 206.76 -1.29 C 207.69 -0.4 208.85 0.03 210.24 0.03 C 210.47 0.03 210.67 0.03 210.91 0 L 227.18 0 C 227.81 0.07 228.4 0.1 229 0.1 C 231.23 0.1 233.15 -0.33 234.71 -1.2 C 236.71 -2.29 238.63 -4.81 240.46 -8.83 L 233.09 -13.71 C 232.06 -11.69 230.7 -10.36 228.94 -9.76 L 215.39 -9.73 C 215.75 -13.35 217.95 -17.66 221.9 -22.64 C 225.85 -27.63 230.96 -31.84 237.2 -35.33 L 238.3 -45.12 L 207.75 -45.12 Z M 241.88 -1.79 L 250.82 0.93 L 263.87 -30.02 L 275.55 1.2 L 284.35 -1.83 L 272.96 -32.34 L 280.13 -32.37 L 281.5 -42.2 L 268.35 -42.2 L 269.31 -45.39 L 261.14 -48.48 L 258.52 -42.2 L 246.1 -42.2 L 245.37 -32.51 L 254.77 -32.47 Z M 255.93 -5.11 L 261.04 0.4 L 270.44 -9.03 L 265.36 -14.61 Z" stroke-linecap="round" />
</g>
</g>
</g>
</svg>